<svg width="495" height="497" viewBox="0 0 495 497" fill="none" xmlns="http://www.w3.org/2000/svg">
<path d="M169.86 324.311C150.723 324.311 135.212 308.799 135.212 289.67V179.44C135.212 80.499 215.716 0 314.662 0C413.603 0 494.092 80.5 494.092 179.44C494.092 198.577 478.584 214.088 459.451 214.088C440.322 214.088 424.81 198.576 424.81 179.44C424.81 118.702 375.396 69.28 314.66 69.28C253.91 69.28 204.5 118.702 204.5 179.44V289.67C204.512 308.799 189 324.311 169.863 324.311H169.86Z" fill="black"/>
<path d="M179.43 496.261C80.489 496.261 0 415.773 0 316.831C0 297.694 15.512 282.19 34.648 282.19C53.785 282.19 69.289 297.698 69.289 316.831C69.289 377.561 118.703 426.981 179.439 426.981C240.181 426.981 289.599 377.559 289.599 316.831L289.595 206.581C289.595 187.444 305.107 171.933 324.236 171.933C343.373 171.933 358.877 187.445 358.877 206.581V316.821C358.869 415.766 278.373 496.261 179.427 496.261H179.43Z" fill="black"/>
</svg>
