<svg width="508" height="157" viewBox="0 0 508 157" fill="none" xmlns="http://www.w3.org/2000/svg">
    <g filter="url(#filter0_d_1837_32)">
        <path d="M181.251 80.8388V25.0288H215.06C226.363 25.0288 233.663 28.9984 236.96 36.9377C238.44 41.0418 239.18 45.7179 239.18 50.9659V55.1037C239.18 64.6576 237.061 71.9577 232.822 77.0038H225.657V80.637H236.657V104.253H230.198V107.886H239.988V121.813H219.4V99.5094H211.427V85.1785H197.701V109.602H200.628V123.63H181.554C181.352 123.63 181.251 123.529 181.251 123.327V83.6646H189.728V80.8388H181.251ZM208.803 41.0755H200.628V68.93H205.371C212.369 68.93 216.439 68.2572 217.583 66.9116C218.727 66.1715 219.601 64.6913 220.207 62.471H227.574V58.9387H220.913V59.2415C220.577 61.3945 220.308 62.471 220.106 62.471H210.619V58.9387H220.611C220.812 58.9387 220.913 58.8378 220.913 58.6359C220.981 55.8101 221.014 54.1954 221.014 53.7917C221.014 47.6691 219.971 43.9013 217.886 42.4884C216.204 41.5464 213.176 41.0755 208.803 41.0755ZM248.97 73.8752V25.4325H297.312V41.5801C297.312 41.7819 297.211 41.8829 297.009 41.8829H268.347V63.1774H294.082V63.3793C294.082 63.9175 293.981 67.3825 293.779 73.7743C293.645 73.7743 293.577 73.8079 293.577 73.8752H294.788V78.8204H272.485V99.0048H266.429V101.023H272.485V107.18H297.715V109.4H295.697V121.51H265.521V123.63H251.089V88.408H248.97V75.9946H233.226V73.8752H248.97ZM257.245 73.8752H249.172V75.9946H257.245V73.8752ZM338.791 25.0288C349.69 25.0288 357.024 28.5611 360.792 35.6257C363.348 40.9409 364.627 46.1552 364.627 51.2686H364.526C356.99 51.9414 351.843 52.2778 349.085 52.2778C349.085 48.6446 347.974 45.5833 345.754 43.0939C343.601 41.8829 341.65 41.2773 339.901 41.2773H337.075C332.432 41.2773 329.573 43.0939 328.496 46.7271C328.295 47.8036 328.194 48.611 328.194 49.1493V50.6631C328.194 55.7765 330.919 59.5106 336.368 61.8655C336.839 62.2691 340.607 63.9848 347.672 67.0125C351.439 68.7618 354.938 70.9148 358.168 73.4715V73.5724H340.809V75.5909H363.617V78.3158H366.544V108.29H360.892V123.63H316.991V108.29H306.697V97.8947H312.551V94.3624H306.697V91.9403H326.781V108.29H347.268V83.6646H331.928V75.5909H312.854V73.5724H322.037V73.4715C313.964 68.089 309.927 60.4862 309.927 50.6631V49.3511C309.927 41.0755 312.45 34.8183 317.496 30.5796C322.071 26.8791 329.169 25.0288 338.791 25.0288ZM363.617 75.5909V73.5724H370.581V75.5909H363.617ZM300.036 97.8947V94.3624H306.697V97.8947H300.036ZM368.764 41.2773V24.7261H426.694V41.2773H407.519V109.602H416.198V111.62H407.519V119.189H402.372V121.813H406.005V123.63H388.444C388.175 123.63 388.041 123.529 388.041 123.327V41.2773H368.764ZM407.418 109.602H400.757V111.62H407.418V109.602ZM460.402 24.9279C474.531 24.9279 483.849 29.8731 488.357 39.7635C490.847 44.6078 492.091 53.9262 492.091 67.7189V68.1226H484.825V71.4531H492.091V107.18H487.247V119.997H477.659V123.63H444.153V119.997H440.116V107.18H431.437V97.0873H436.584V91.7384H431.437V97.0873H419.226V91.7384H428.51C428.443 83.7319 428.409 77.5757 428.409 73.2697V64.8931C428.409 49.2165 431.033 38.7543 436.281 33.5063C441.126 27.7874 449.166 24.9279 460.402 24.9279ZM448.291 58.9387H448.493L448.291 59.2415V68.1226H440.924V71.4531H448.291C448.224 85.6495 448.19 96.3808 448.19 103.647V107.18H464.641V101.73H472.21V101.528C472.21 94.7997 472.176 85.414 472.109 73.3706C472.109 72.8996 472.142 71.6549 472.21 69.6365C472.21 56.6511 471.47 48.6783 469.989 45.7179C468.442 42.8248 465.549 41.3782 461.31 41.3782H458.888C453.909 41.3782 450.814 43.5985 449.603 48.0391C449.065 50.1921 448.628 53.8253 448.291 58.9387ZM492.091 71.4531V68.1226H504V71.4531H492.091Z" fill="#2E3034" />
    </g>
    <g filter="url(#filter1_d_1837_32)">
        <path d="M54.7783 96.9518C52.0317 96.9518 49.3975 95.8608 47.4551 93.9188C45.5128 91.9767 44.4213 89.3427 44.4209 86.596V53.6421C44.4209 24.0647 68.4873 0 98.0663 0C127.644 0 151.705 24.0647 151.705 53.6421C151.705 56.3886 150.614 59.0226 148.672 60.9647C146.73 62.9068 144.096 63.9978 141.349 63.9978C138.603 63.9978 135.969 62.9068 134.027 60.9647C132.085 59.0226 130.993 56.3886 130.993 53.6421C130.993 35.4852 116.222 20.7115 98.0646 20.7115C79.9044 20.7115 65.1324 35.4852 65.1324 53.6421V86.596C65.1329 87.956 64.8654 89.3026 64.3452 90.5591C63.825 91.8157 63.0624 92.9574 62.1009 93.9191C61.1393 94.8807 59.9977 95.6436 58.7413 96.1639C57.4849 96.6843 56.1383 96.952 54.7783 96.9518V96.9518Z" fill="#488EFF" />
        <path d="M57.6404 148.356C28.063 148.356 4 124.294 4 94.7151C4 91.9684 5.09114 89.3341 7.03338 87.3919C8.97562 85.4496 11.6099 84.3585 14.3566 84.3585C17.1033 84.3585 19.7376 85.4496 21.6798 87.3919C23.6221 89.3341 24.7132 91.9684 24.7132 94.7151C24.7132 112.87 39.4852 127.644 57.6421 127.644C75.8007 127.644 90.5743 112.87 90.5743 94.7151V61.7595C90.5495 60.3839 90.7991 59.0171 91.3084 57.739C91.8178 56.4609 92.5766 55.2971 93.5407 54.3156C94.5048 53.334 95.6547 52.5544 96.9234 52.0221C98.1922 51.4899 99.5542 51.2158 100.93 51.2158C102.306 51.2158 103.668 51.4899 104.937 52.0221C106.205 52.5544 107.355 53.334 108.319 54.3156C109.283 55.2971 110.042 56.4609 110.552 57.739C111.061 59.0171 111.311 60.3839 111.286 61.7595V94.7151C111.282 124.294 87.2195 148.356 57.6404 148.356Z" fill="#488EFF" />
    </g>
    <defs>
        <filter id="filter0_d_1837_32" x="177.251" y="24.7261" width="330.749" height="106.904" filterUnits="userSpaceOnUse" color-interpolation-filters="sRGB">
            <feFlood flood-opacity="0" result="BackgroundImageFix" />
            <feColorMatrix in="SourceAlpha" type="matrix" values="0 0 0 0 0 0 0 0 0 0 0 0 0 0 0 0 0 0 127 0" result="hardAlpha" />
            <feOffset dy="4" />
            <feGaussianBlur stdDeviation="2" />
            <feComposite in2="hardAlpha" operator="out" />
            <feColorMatrix type="matrix" values="0 0 0 0 0 0 0 0 0 0 0 0 0 0 0 0 0 0 0.25 0" />
            <feBlend mode="normal" in2="BackgroundImageFix" result="effect1_dropShadow_1837_32" />
            <feBlend mode="normal" in="SourceGraphic" in2="effect1_dropShadow_1837_32" result="shape" />
        </filter>
        <filter id="filter1_d_1837_32" x="0" y="0" width="155.705" height="156.355" filterUnits="userSpaceOnUse" color-interpolation-filters="sRGB">
            <feFlood flood-opacity="0" result="BackgroundImageFix" />
            <feColorMatrix in="SourceAlpha" type="matrix" values="0 0 0 0 0 0 0 0 0 0 0 0 0 0 0 0 0 0 127 0" result="hardAlpha" />
            <feOffset dy="4" />
            <feGaussianBlur stdDeviation="2" />
            <feComposite in2="hardAlpha" operator="out" />
            <feColorMatrix type="matrix" values="0 0 0 0 0 0 0 0 0 0 0 0 0 0 0 0 0 0 0.25 0" />
            <feBlend mode="normal" in2="BackgroundImageFix" result="effect1_dropShadow_1837_32" />
            <feBlend mode="normal" in="SourceGraphic" in2="effect1_dropShadow_1837_32" result="shape" />
        </filter>
    </defs>
</svg>
    